<?xml version="1.0" standalone="no"?>
<!DOCTYPE svg PUBLIC "-//W3C//DTD SVG 20010904//EN"
 "http://www.w3.org/TR/2001/REC-SVG-20010904/DTD/svg10.dtd">
<svg version="1.0" xmlns="http://www.w3.org/2000/svg"
 width="359.000000pt" height="359.000000pt" viewBox="0 0 359.000000 359.000000"
 preserveAspectRatio="xMidYMid meet">
<metadata>
Created by potrace 1.14, written by Peter Selinger 2001-2017
</metadata>
<g transform="translate(0.000000,359.000000) scale(0.100000,-0.100000)"
fill="#000000" stroke="none">
<path d="M1765 3343 c-159 -10 -327 -65 -445 -144 -68 -46 -102 -81 -132 -138
-25 -47 -36 -56 -82 -66 -18 -4 -55 -32 -93 -71 -49 -50 -74 -88 -117 -176
-101 -207 -145 -417 -126 -598 16 -153 18 -162 52 -200 17 -19 28 -29 24 -22
-14 24 8 12 35 -21 23 -27 30 -30 46 -21 10 6 18 15 19 20 0 13 73 161 107
219 35 58 127 240 127 249 0 3 19 45 42 93 28 59 59 105 94 141 60 60 87 65
132 27 16 -13 32 -21 36 -17 4 4 6 0 4 -8 -1 -8 2 -14 9 -13 7 2 10 -4 6 -13
-3 -8 -1 -14 4 -12 5 2 21 -9 35 -24 14 -15 28 -24 32 -20 4 4 6 2 4 -4 -4
-15 110 -116 122 -109 5 3 12 0 16 -6 4 -8 3 -9 -4 -5 -7 4 -12 5 -12 3 0 -13
188 -127 270 -164 60 -27 164 -63 182 -63 10 0 18 -4 18 -9 0 -4 11 -6 25 -3
14 2 25 0 25 -5 0 -6 21 -13 48 -16 26 -4 58 -9 72 -12 132 -30 176 -34 320
-31 85 1 178 0 205 -3 44 -5 50 -9 52 -31 3 -36 -8 -91 -17 -85 -4 2 -5 -11
-3 -30 2 -21 -1 -35 -7 -35 -6 0 -8 -4 -5 -10 3 -5 2 -10 -3 -10 -5 0 -9 -15
-9 -32 -2 -71 -6 -88 -17 -81 -6 4 -5 -1 3 -10 11 -14 11 -17 0 -17 -11 0 -11
-2 1 -10 10 -7 12 -12 4 -17 -6 -5 -14 -28 -18 -53 -3 -25 -9 -58 -12 -75 -3
-16 -6 -46 -8 -66 -2 -20 -6 -41 -9 -46 -4 -6 -5 -20 -2 -31 2 -13 -1 -21 -8
-19 -7 1 -11 -4 -9 -12 1 -7 -2 -77 -9 -155 -6 -77 -11 -149 -11 -159 1 -11
-4 -15 -11 -10 -8 4 -8 1 1 -9 9 -11 10 -18 2 -23 -6 -3 -8 -10 -5 -15 3 -5 0
-12 -6 -15 -5 -4 -8 -13 -5 -21 3 -7 1 -16 -5 -19 -5 -4 -7 -11 -4 -16 4 -5 1
-9 -5 -9 -6 0 -8 -5 -5 -10 3 -6 1 -10 -6 -10 -8 0 -7 -5 2 -17 8 -9 9 -14 2
-10 -7 5 -14 -2 -18 -15 -4 -13 -14 -31 -22 -40 -8 -9 -12 -22 -8 -27 3 -6 -1
-11 -9 -11 -9 0 -16 -7 -16 -15 0 -8 -7 -15 -15 -15 -9 0 -18 -7 -22 -16 -3
-8 -12 -13 -19 -10 -8 3 -13 0 -11 -7 1 -7 -4 -11 -11 -9 -6 1 -11 -2 -10 -7
5 -15 -52 -72 -64 -65 -7 4 -8 3 -4 -4 4 -6 -2 -20 -14 -32 -11 -11 -20 -24
-20 -29 0 -6 -5 -13 -12 -17 -7 -4 -8 -3 -4 4 4 7 3 12 -2 12 -6 0 -13 -7 -16
-16 -3 -9 -11 -12 -18 -8 -9 5 -8 2 1 -9 12 -15 12 -17 -4 -11 -13 5 -16 4
-11 -4 4 -7 3 -12 -3 -12 -5 0 -23 -12 -40 -26 -17 -14 -31 -23 -31 -19 0 4
-13 -9 -29 -29 -16 -20 -33 -38 -38 -39 -4 -1 -7 -5 -6 -9 2 -4 -7 -5 -18 -3
-18 4 -19 2 -7 -12 8 -10 8 -14 1 -10 -7 4 -16 0 -22 -10 -6 -10 -11 -15 -11
-11 0 5 -11 -2 -25 -14 -13 -11 -22 -26 -18 -31 3 -6 1 -7 -4 -4 -6 4 -16 0
-23 -8 -7 -8 -21 -15 -30 -15 -10 0 -20 -5 -22 -11 -2 -6 -21 -13 -43 -17 -61
-9 -253 -4 -315 9 -30 6 -59 12 -65 13 -5 1 -16 6 -24 10 -10 7 -12 5 -6 -5 6
-11 5 -12 -6 -2 -7 7 -21 13 -30 13 -9 0 -22 7 -29 15 -7 9 -15 13 -18 10 -3
-3 -14 3 -25 12 -10 10 -22 18 -26 18 -3 0 -5 4 -3 8 1 5 -2 6 -7 3 -9 -6 -61
41 -61 56 0 5 -4 6 -10 3 -5 -3 -10 -1 -10 6 0 6 -8 18 -17 26 -11 9 -12 12
-3 7 8 -4 4 5 -9 19 -14 15 -32 27 -40 27 -14 0 -14 1 -1 10 13 8 12 10 -3 10
-10 0 -15 4 -12 10 3 5 0 7 -8 4 -8 -3 -18 0 -23 7 -5 8 -3 10 7 5 8 -4 5 0
-5 8 -13 10 -15 16 -6 16 7 0 3 9 -11 21 -13 11 -24 26 -24 32 0 5 -7 12 -15
14 -13 4 -13 3 0 -7 13 -10 13 -11 0 -7 -8 2 -15 9 -15 16 0 7 -9 19 -19 27
-11 8 -14 14 -8 14 7 0 12 5 12 10 0 7 -8 7 -22 -1 l-23 -12 20 23 20 23 -23
-12 c-22 -12 -23 -11 -12 9 8 15 8 20 1 16 -6 -4 -11 -4 -11 1 0 4 -4 14 -9
22 -8 13 -12 13 -27 0 -16 -13 -16 -12 -3 8 12 21 11 25 -11 47 -60 58 -82 87
-76 102 5 12 2 15 -10 10 -12 -5 -15 -2 -10 10 5 14 4 15 -8 5 -11 -9 -15 -8
-20 4 -3 9 -2 13 4 10 6 -3 10 -3 10 1 0 15 -34 84 -41 84 -4 0 -10 13 -14 30
-4 16 -11 30 -16 30 -6 0 -7 5 -4 11 4 5 1 18 -7 27 -25 30 -41 70 -34 87 3 9
2 14 -3 10 -5 -3 -12 1 -14 7 -8 19 3 -53 13 -82 4 -14 16 -51 26 -82 10 -31
22 -54 27 -51 6 3 7 1 3 -6 -10 -16 64 -163 116 -232 65 -85 125 -149 133
-141 3 4 5 2 3 -5 -4 -17 191 -225 204 -217 6 4 8 2 5 -4 -10 -15 85 -97 148
-127 141 -70 432 -99 545 -56 67 26 423 293 518 389 64 65 101 116 103 139 0
5 6 15 13 23 18 20 54 125 59 170 5 37 13 64 28 93 6 11 6 17 -1 17 -6 0 -8
12 -6 27 3 14 8 47 11 72 17 126 48 236 65 226 4 -3 13 2 20 10 7 8 16 13 20
10 9 -6 16 12 25 65 l6 35 -35 -34 c-19 -19 -34 -37 -32 -40 2 -3 -4 -14 -14
-24 -17 -17 -17 -16 -8 29 6 26 21 59 35 73 13 15 22 34 19 44 -2 9 14 50 36
90 22 39 46 87 54 106 66 156 101 584 59 726 -56 191 -203 392 -390 533 -87
65 -280 162 -403 202 -170 55 -359 83 -497 73z m-661 -2513 c-6 -6 -10 -3 -10
10 0 13 4 16 10 10 7 -7 7 -13 0 -20z m1501 -77 c-2 -10 -4 -19 -4 -21 -1 -2
-6 0 -11 3 -8 5 -7 11 1 21 15 18 18 18 14 -3z m-1251 -229 c3 -8 2 -12 -4 -9
-6 3 -10 10 -10 16 0 14 7 11 14 -7z"/>
<path d="M1400 2144 c-60 -19 -95 -47 -87 -69 6 -15 15 -16 70 -9 34 4 79 7
99 6 50 -3 188 -44 295 -87 81 -33 88 -34 110 -19 14 8 23 23 21 32 -6 35
-196 117 -339 147 -85 18 -110 18 -169 -1z"/>
<path d="M2475 1945 c-5 -2 -27 -6 -47 -10 -48 -8 -66 -37 -41 -62 16 -16 31
-17 113 -12 85 5 184 -2 233 -17 9 -3 31 -17 48 -31 26 -22 32 -24 44 -12 11
12 11 20 0 51 -25 75 -85 98 -242 97 -54 0 -102 -2 -108 -4z"/>
<path d="M737 1850 c9 -16 21 -30 25 -30 4 0 16 -17 27 -37 12 -22 20 -31 21
-21 0 22 -36 89 -58 106 -27 21 -34 13 -15 -18z"/>
<path d="M1391 1792 c-57 -16 -131 -77 -131 -108 0 -11 7 -7 24 13 13 15 43
39 67 52 l42 24 -28 -37 c-48 -64 -46 -159 6 -187 18 -9 19 -8 10 8 -5 11 -6
25 -1 32 6 10 9 8 15 -8 3 -11 11 -21 17 -21 7 0 7 -4 0 -13 -8 -9 -7 -13 6
-14 9 -1 29 -5 44 -8 70 -18 132 20 153 93 11 34 10 43 -4 58 -15 17 -15 17 6
0 12 -10 22 -25 22 -34 3 -46 6 -62 13 -62 4 0 9 10 10 23 0 12 2 29 3 37 2
21 -15 60 -42 97 l-24 33 26 -10 c84 -32 137 -83 165 -161 l19 -54 1 40 c0 41
-32 100 -75 138 -48 43 -184 88 -258 86 -18 0 -56 -8 -86 -17z m77 -54 c17
-17 15 -55 -4 -62 -21 -8 -54 2 -54 15 0 6 -5 7 -12 3 -13 -8 -3 12 20 39 18
20 33 22 50 5z m137 -36 c-3 -3 -11 0 -18 7 -9 10 -8 11 6 5 10 -3 15 -9 12
-12z m-217 -37 c-3 -3 -9 2 -12 12 -6 14 -5 15 5 6 7 -7 10 -15 7 -18z"/>
<path d="M2475 1636 c-5 -2 -36 -9 -67 -16 -37 -8 -74 -26 -107 -51 -28 -22
-60 -39 -71 -39 -22 0 -28 -38 -9 -57 6 -6 16 -21 23 -34 6 -12 22 -26 35 -31
21 -7 22 -6 11 7 -21 25 0 17 37 -15 40 -36 67 -37 128 -8 39 19 47 28 57 65
6 24 15 43 20 43 6 0 7 -7 4 -16 -3 -8 -2 -12 4 -9 17 10 11 -49 -7 -75 -16
-23 -16 -24 0 -11 48 38 42 148 -11 204 l-27 29 44 -7 c90 -13 164 -72 177
-140 8 -45 22 -53 30 -20 14 56 -47 133 -128 164 -29 11 -126 22 -143 17z
m-92 -66 c11 -44 -42 -67 -67 -28 -8 14 -6 21 9 32 28 21 52 20 58 -4z m137
-24 c0 -3 -4 -8 -10 -11 -5 -3 -10 -1 -10 4 0 6 5 11 10 11 6 0 10 -2 10 -4z
m10 -26 c0 -5 -5 -10 -11 -10 -5 0 -7 5 -4 10 3 6 8 10 11 10 2 0 4 -4 4 -10z
m-243 -42 c-3 -8 -6 -5 -6 6 -1 11 2 17 5 13 3 -3 4 -12 1 -19z"/>
<path d="M1631 1544 c-12 -27 -11 -28 4 -12 10 9 16 21 13 28 -2 7 -10 -1 -17
-16z"/>
<path d="M840 1405 c0 -8 4 -15 10 -15 5 0 7 7 4 15 -4 8 -8 15 -10 15 -2 0
-4 -7 -4 -15z"/>
<path d="M836 1366 c3 -8 0 -17 -7 -22 -7 -4 -10 -3 -6 3 4 6 -3 8 -18 5 -24
-4 -23 -5 13 -23 50 -26 67 -19 44 21 -17 30 -36 42 -26 16z m29 -36 c3 -5 1
-10 -4 -10 -6 0 -11 5 -11 10 0 6 2 10 4 10 3 0 8 -4 11 -10z"/>
<path d="M2171 1148 c-1 -69 -39 -109 -109 -116 -70 -6 -134 13 -180 55 -30
27 -38 31 -40 18 -10 -48 98 -108 191 -106 109 1 170 68 148 161 -9 35 -9 35
-10 -12z"/>
<path d="M1570 971 c19 -17 38 -31 43 -31 5 0 7 -6 4 -14 -4 -9 2 -12 19 -10
15 1 22 -2 17 -9 -4 -6 0 -8 10 -4 10 3 17 2 17 -3 0 -4 15 -12 33 -15 17 -4
37 -11 43 -16 11 -9 63 -20 97 -20 9 0 17 -3 17 -7 0 -4 18 -7 40 -5 23 1 40
-3 40 -9 0 -5 7 -7 16 -4 9 4 13 2 8 -5 -4 -7 0 -9 14 -5 11 4 23 2 27 -4 3
-5 1 -10 -5 -10 -6 0 -8 -5 -4 -11 4 -8 0 -8 -15 0 -13 7 -21 8 -21 2 0 -6
-23 -8 -57 -6 -68 6 -65 -4 3 -11 27 -2 58 -7 70 -9 11 -2 55 -1 97 4 81 9
169 45 206 85 l20 21 -182 -2 c-100 -1 -195 2 -210 7 -19 6 -26 6 -21 -1 3 -6
-9 -3 -27 7 -19 10 -40 17 -48 15 -8 -1 -10 2 -6 9 6 9 2 9 -13 1 -25 -14 -43
-14 -22 -1 12 8 12 10 -5 10 -28 0 -136 36 -230 77 -5 2 6 -9 25 -26z m497
-167 c-3 -3 -12 -4 -19 -1 -8 3 -5 6 6 6 11 1 17 -2 13 -5z"/>
<path d="M1668 869 c18 -12 36 -19 39 -15 4 3 1 6 -6 6 -7 0 -9 4 -6 10 3 5 0
7 -8 4 -8 -3 -18 -1 -22 5 -3 6 -12 11 -18 11 -7 0 3 -10 21 -21z"/>
<path d="M1877 809 c7 -7 15 -10 18 -7 3 3 -2 9 -12 12 -14 6 -15 5 -6 -5z"/>
<path d="M1820 800 c-9 -6 -10 -10 -3 -10 6 0 15 5 18 10 8 12 4 12 -15 0z"/>
</g>
</svg>
